HIERARCHY
ROOT Hips
{
	OFFSET 0.000000 0.000000 0.000000
	CHANNELS 6 Xposition Yposition Zposition Zrotation Yrotation Xrotation 
	JOINT LHipJoint
	{
		OFFSET 0.000000 0.000000 0.000000
		CHANNELS 3 Zrotation Yrotation Xrotation
		JOINT LeftUpLeg
		{
			OFFSET 1.363060 -1.794630 0.839290
			CHANNELS 3 Zrotation Yrotation Xrotation
			JOINT LeftLeg
			{
				OFFSET 2.448110 -6.726130 0.000000
				CHANNELS 3 Zrotation Yrotation Xrotation
				JOINT LeftFoot
				{
					OFFSET 2.562200 -7.039590 0.000000
					CHANNELS 3 Zrotation Yrotation Xrotation
					JOINT LeftToeBase
					{
						OFFSET 0.157640 -0.433110 2.322550
						CHANNELS 3 Zrotation Yrotation Xrotation
						End Site
						{
							OFFSET 0.000000 0.000000 0.000000
						}
					}
				}
			}
		}
	}
	JOINT RHipJoint
	{
		OFFSET 0.000000 0.000000 0.000000
		CHANNELS 3 Zrotation Yrotation Xrotation
		JOINT RightUpLeg
		{
			OFFSET -1.305520 -1.794630 0.839290
			CHANNELS 3 Zrotation Yrotation Xrotation
			JOINT RightLeg
			{
				OFFSET -2.542530 -6.985550 0.000000
				CHANNELS 3 Zrotation Yrotation Xrotation
				JOINT RightFoot
				{
					OFFSET -2.568260 -7.056230 0.000000
					CHANNELS 3 Zrotation Yrotation Xrotation
					JOINT RightToeBase
					{
						OFFSET -0.164730 -0.452590 2.363150
						CHANNELS 3 Zrotation Yrotation Xrotation
						End Site
						{
							OFFSET 0.000000 0.000000 0.000000
						}
					}
				}
			}
		}
	}
}
MOTION
Frames: 28
Frame Time: 0.008333
-6.439169 16.287896 -0.799055 161.301586 88.621605 -178.960673 -10.669822 3.083141 -1.509930 -8.774324 -2.174636 6.582788 -0.913263 1.571501 21.658404 0.398463 0.925348 8.684276 0.256700 -0.000000 -88.011900 8.604929 1.231501 2.257070 -0.721576 4.207990 -49.089843 2.190219 -1.177036 16.023194 0.812894 5.050686 11.419963 1.243001 -0.000000 -61.760100
-6.187053 16.265361 -0.818920 22.204639 89.731057 42.041662 -11.459565 3.638168 -1.390359 -8.269280 -1.506409 5.200903 -0.853903 1.941459 24.269006 0.611506 1.617603 10.481941 0.363700 0.000000 -88.017100 8.308589 1.576377 1.886720 0.046465 4.797146 -49.729202 2.052376 -1.353563 19.354158 0.854772 5.037401 11.943130 1.229500 -0.000000 -60.129801
-5.938970 16.249823 -0.840191 38.238500 89.800861 58.091312 -12.268718 3.625217 -1.349571 -7.553008 -0.950040 3.813750 -0.540441 2.103218 27.276260 0.804371 2.421939 12.361320 0.564300 0.000000 -86.644200 7.760264 1.329203 1.710079 0.657328 4.935678 -50.235259 1.934128 -1.594398 22.329816 0.829377 4.883854 11.862810 1.167999 0.000000 -58.685900
-5.695357 16.241849 -0.862401 -135.293149 89.762383 -115.423338 -12.835969 3.532483 -1.358344 -6.699918 -0.313128 2.275703 -0.228728 2.226702 30.462081 1.026491 3.472789 14.122306 0.885600 -0.000000 -83.757100 7.405986 1.102462 1.580507 1.381385 5.035497 -50.555937 1.848862 -1.811777 24.952117 0.779322 4.637869 11.298498 1.049500 -0.000000 -57.626201
-5.456634 16.241721 -0.884431 -132.745922 89.230136 -112.848344 -13.302259 3.414309 -1.393603 -5.838436 0.409754 0.572091 0.042209 2.334429 33.753312 1.275345 4.801175 15.623877 1.349400 -0.000001 -79.357100 7.139059 0.917875 1.464594 2.140217 5.105668 -50.684759 1.795949 -1.981326 27.213327 0.720518 4.327625 10.310214 0.884500 0.000000 -57.044600
-5.223170 16.249538 -0.904696 -132.337074 88.679372 -112.402768 -13.686676 3.281437 -1.449296 -5.052955 1.183800 -1.267345 0.259891 2.437402 37.091363 1.538670 6.401379 16.740113 1.957599 -0.000000 -73.674000 6.937365 0.774244 1.357208 2.865613 5.119750 -50.623151 1.771406 -2.103083 29.108856 0.655029 3.979310 8.971826 0.695700 -0.000000 -56.932100
-4.994919 16.265321 -0.922491 -133.252481 88.129870 -113.269988 -13.995978 3.140625 -1.521412 -4.370610 1.984798 -3.228381 0.424234 2.546615 40.426819 1.802378 8.210652 17.383226 2.671699 -0.000000 -67.200000 6.790589 0.665243 1.259578 3.526763 5.071313 -50.370999 1.772949 -2.178221 30.618149 0.580448 3.596577 7.392117 0.500101 0.000000 -57.211000
-4.771762 16.289026 -0.937041 -135.181452 87.593965 -115.136313 -14.221760 3.001966 -1.604801 -3.831583 2.774353 -5.288556 0.541807 2.670778 43.700473 2.056344 10.153261 17.534318 3.434300 -0.000000 -60.582600 6.703963 0.592604 1.171591 4.088557 4.948378 -49.937886 1.794881 -2.210143 31.736184 0.495653 3.192204 5.692642 0.316200 0.000001 -57.753200
-4.553418 16.320415 -0.948035 -137.937973 87.069501 -117.812316 -14.357995 2.872586 -1.692997 -3.462705 3.514706 -7.429477 0.624553 2.812690 46.859330 2.293773 12.135464 17.231538 4.175800 -0.000000 -54.439200 6.682686 0.555307 1.093543 4.527784 4.744422 -49.337121 1.830721 -2.203195 32.463568 0.400849 2.773240 4.001897 0.155900 0.000000 -58.418100
-4.339260 16.359231 -0.955842 -141.351182 86.538953 -121.116140 -14.408604 2.753723 -1.776020 -3.268937 4.171733 -9.649527 0.686124 2.968410 49.864252 2.509884 14.055290 16.544455 4.827500 0.000000 -49.175600 6.724198 0.545154 1.029450 4.839780 4.464375 -48.593114 1.874806 -2.161883 32.802686 0.297372 2.335202 2.443310 0.022301 0.000000 -59.059200
-4.129085 16.404985 -0.960482 -145.333591 85.995778 -124.962459 -14.368162 2.646421 -1.850418 -3.280044 4.715880 -11.921355 0.737142 3.129550 52.672120 2.701803 15.833851 15.555926 5.342000 0.000000 -44.927400 6.835586 0.559915 0.976946 5.004760 4.098439 -47.727485 1.918843 -2.094344 32.783976 0.190362 1.891921 1.113676 -0.082899 0.000000 -59.587500
-3.922138 16.457098 -0.963094 -149.681798 85.414429 -129.138225 -14.252827 2.543438 -1.906788 -3.483304 5.128011 -14.245176 0.786566 3.283468 55.253903 2.866727 17.394271 14.349872 5.685800 0.000000 -41.673000 7.003729 0.584125 0.940782 5.037010 3.659163 -46.771089 1.959155 -2.006483 32.429163 0.083682 1.437171 0.087276 -0.167800 -0.000000 -59.945200
-3.718188 16.514898 -0.964561 -154.212659 84.786523 -133.466270 -14.076024 2.438036 -1.944693 -3.877119 5.402088 -16.592290 0.837995 3.418542 57.574585 3.002123 18.683435 13.001032 5.847600 0.000001 -39.225400 7.217836 0.608095 0.917323 4.943049 3.150768 -45.740222 1.992161 -1.905355 31.779340 -0.017396 0.981137 -0.604043 -0.239200 -0.000000 -60.125500
-3.516928 16.577688 -0.966184 -158.705887 84.110296 -137.732361 -13.860029 2.323147 -1.963080 -4.441252 5.540799 -18.934664 0.890897 3.525570 59.599416 3.106413 19.667996 11.593731 5.840099 -0.000000 -37.488000 7.458074 0.621432 0.902577 4.744617 2.587167 -44.646470 2.017282 -1.795398 30.875080 -0.108963 0.532209 -0.962321 -0.305200 -0.000000 -60.156899
-3.317889 16.644642 -0.969182 -162.987031 83.395128 -141.765439 -13.625458 2.195602 -1.959550 -5.151915 5.549459 -21.249819 0.941300 3.599628 61.298290 3.178974 20.337588 10.213876 5.696200 -0.000000 -36.444700 7.705633 0.618852 0.892977 4.464490 1.982860 -43.504150 2.035436 -1.679124 29.761415 -0.188108 0.103209 -1.021210 -0.371200 0.000000 -60.093500
-3.121166 16.714992 -0.974709 -166.885948 82.664160 -145.412247 -13.390625 2.055484 -1.941329 -5.970980 5.457261 -23.499859 0.982741 3.643358 62.648088 3.218029 20.688910 8.910717 5.447200 0.000000 -35.881400 7.942854 0.599747 0.878409 4.133097 1.356713 -42.304410 2.048957 -1.557414 28.480858 -0.252969 -0.290801 -0.837116 -0.439200 0.000001 -59.995200
-2.926551 16.787956 -0.983626 -170.310145 81.942059 -148.591820 -13.166539 1.906313 -1.912609 -6.858749 5.291895 -25.659787 1.009320 3.661677 63.636013 3.224240 20.743250 7.734349 5.134300 -0.000000 -35.728099 8.158507 0.566482 0.852521 3.779084 0.726099 -41.044124 2.060779 -1.430220 27.072650 -0.302606 -0.635838 -0.476098 -0.508200 -0.000000 -59.927000
-2.733886 16.862734 -0.996439 -173.226333 81.251599 -151.282199 -12.957670 1.752413 -1.879550 -7.776681 5.085956 -27.711084 1.016556 3.661029 64.262947 3.199874 20.537255 6.708350 4.792200 0.000000 -35.854200 8.347356 0.522746 0.810152 3.426865 0.105338 -39.719582 2.073758 -1.297750 25.571384 -0.336852 -0.920683 -0.003911 -0.574900 0.000000 -59.944100
-2.543018 16.938487 -1.013260 -175.647142 80.608041 -153.506039 -12.764181 1.597807 -1.847971 -8.692046 4.871331 -29.643332 1.001900 3.647331 64.542488 3.149239 20.120943 5.831461 4.446300 0.000001 -36.084700 8.508582 0.471509 0.748784 3.094835 -0.495440 -38.328321 2.090122 -1.160676 24.005562 -0.356051 -1.138071 0.524496 -0.635100 0.000000 -60.091100
-2.353613 17.014343 -1.033747 -177.624885 80.017989 -155.322255 -12.583337 1.445645 -1.822170 -9.582408 4.674798 -31.454248 0.964554 3.624835 64.498674 3.078630 19.554375 5.082831 4.112900 -0.000000 -36.242900 8.644932 0.414635 0.669053 2.791882 -1.071140 -36.871534 2.110707 -1.020283 22.398052 -0.361146 -1.286094 1.071213 -0.685200 -0.000000 -60.400000
-2.165328 17.089341 -1.057338 -179.236747 79.480156 -156.810066 -12.411018 1.297951 -1.804743 -10.438130 4.514125 -33.148473 0.904795 3.596128 64.161305 2.995623 18.901353 4.427360 3.800300 0.000000 -36.191000 8.761246 0.353487 0.573421 2.517442 -1.621866 -35.356634 2.134975 -0.878691 20.768782 -0.353169 -1.365195 1.616929 -0.722400 0.000000 -60.877599
-1.977705 17.162538 -1.083256 179.433416 78.987483 -158.051257 -12.242956 1.156302 -1.795628 -11.258168 4.396866 -34.734497 0.823399 3.562356 63.561279 2.907703 18.219689 3.822135 3.510300 0.000000 -35.847900 8.863093 0.288724 0.466194 2.264868 -2.149826 -33.796173 2.161075 -0.738380 19.134619 -0.333627 -1.380337 2.159976 -0.745800 0.000000 -61.511900
-1.790305 17.232986 -1.110557 178.289198 78.529123 -159.139403 -12.074086 1.022532 -1.792047 -12.051012 4.318814 -36.216073 0.721370 3.522541 62.721489 2.821915 17.559674 3.232660 3.244000 0.000000 -35.253200 8.957498 0.220867 0.351953 2.020338 -2.662527 -32.203710 2.186040 -0.602573 17.512221 -0.303869 -1.335985 2.711266 -0.755200 -0.000000 -62.270700
-1.602736 17.299697 -1.138586 177.269767 78.095606 -160.126172 -11.901754 0.897611 -1.789814 -12.821585 4.267701 -37.603258 0.599043 3.476228 61.662207 2.743157 16.951614 2.617511 2.995700 0.000000 -34.439500 9.048447 0.150410 0.234671 1.775074 -3.162368 -30.600334 2.207298 -0.474201 15.918298 -0.265773 -1.240484 3.287378 -0.751600 -0.000001 -63.100000
-1.414613 17.361824 -1.166798 176.320073 77.677534 -161.060161 -11.723455 0.783047 -1.782493 -13.574797 4.223272 -38.895369 0.456648 3.421111 60.389279 2.675030 16.413591 1.954750 2.762300 0.000000 -33.527200 9.139861 0.077622 0.117293 1.519856 -3.654707 -29.003371 2.222489 -0.356241 14.369654 -0.221101 -1.100632 3.904447 -0.735700 -0.000000 -63.937199
-1.225720 17.418586 -1.194967 175.414557 77.269042 -161.959946 -11.538544 0.679627 -1.763354 -14.307556 4.161581 -40.087990 0.294013 3.354625 58.898821 2.619384 15.948546 1.233111 2.539899 0.000000 -32.629201 9.233052 0.003077 0.000538 1.251877 -4.142309 -27.429231 2.230505 -0.251006 12.882814 -0.171779 -0.923485 4.571568 -0.708000 -0.000000 -64.718900
-1.035918 17.469268 -1.223240 174.557497 76.868416 -162.814899 -11.348151 0.587153 -1.725997 -15.007087 4.058597 -41.172863 0.111013 3.273846 57.178391 2.576856 15.549537 0.456705 2.326300 -0.000000 -31.851200 9.326700 -0.072368 -0.117103 0.976021 -4.625255 -25.890691 2.231881 -0.159659 11.472228 -0.119788 -0.715961 5.286074 -0.668600 -0.000000 -65.388900
-0.845281 17.513388 -1.251899 173.761020 76.475094 -163.613571 -11.153993 0.504900 -1.664590 -15.655253 3.893652 -42.131839 -0.091765 3.174521 55.206162 2.546960 15.204086 -0.350168 2.123600 -0.000000 -31.293200 9.419001 -0.147907 -0.238729 0.699246 -5.105739 -24.390886 2.227995 -0.082617 10.149861 -0.066852 -0.482905 6.034053 -0.617100 -0.000000 -65.922000
